# xmcd CD database file
#
# Track frame offsets:
#	150
#	11470
#	21377
#	33267
#	46592
#	61442
#	74110
#	88967
#	103907
#	113292
#	125154
#	135330
#	143417
#	154187
#	163955
#	174840
#	186760
#	197532
#	214309
#	225680
#	238787
#	250009
#	260705
#	270977
#	285995
#
# Disc length: 4043 seconds
#
# Revision: 2
# Processed by: cddbd v1.5.2PL0 Copyright (c) Steve Scherf et al.
# Submitted via: CDex 1.70beta2
#
DISCID=600fc919
DTITLE=Compilation - Mega Country CD 4
DYEAR=1999
DGENRE=Country
TTITLE0=Dave Dudley - Cowboy Boots
TTITLE1=Willie Nelson - Misery Mansion
TTITLE2=Waylon Jennings - Crying
TTITLE3=Ferlin Husky - Country Music Is Here To Stay
TTITLE4=Lee Greenwood - Mornin' Ride
TTITLE5=Faron Young - It's Four In The Morning
TTITLE6=Don Gibson - Woman (Sensuous Woman)
TTITLE7=Donna Fargo - You Were Always There
TTITLE8=Jimmy Dean - The First Thing Ev'ry Morning
TTITLE9=Roy Drusky - Another
TTITLE10=David Houston - With One Exception
TTITLE11=Anne Murray - Paths Of Victory
TTITLE12=Bill Justis - Raunchy
TTITLE13=Bob Gallion - Wall To Wall Love
TTITLE14=Carl Belew - Am I That Easy To Forget
TTITLE15=Carl Mann - Till The End Of Forever
TTITLE16=Connie Smith - Ain't Had No Lovin'
TTITLE17=Ray Price - You're The Best Thing That Ever Happened
TTITLE18=Hank Locklin - Send Me The Pillow You Dream On
TTITLE19=Jack Greene - Statue Of Fools
TTITLE20=Ned Miller - Do What You Do Well
TTITLE21=Stonewall Jackson - Waterloo
TTITLE22=Warner Mack - The Bridge Washed Out
TTITLE23=Kingston Trio - Tom Dooley
TTITLE24=Al Hirt and Ace Cannon - Always On My Mind
EXTD=YEAR: 1999
EXTT0=
EXTT1=
EXTT2=
EXTT3=
EXTT4=
EXTT5=
EXTT6=
EXTT7=
EXTT8=
EXTT9=
EXTT10=
EXTT11=
EXTT12=
EXTT13=
EXTT14=
EXTT15=
EXTT16=
EXTT17=
EXTT18=
EXTT19=
EXTT20=
EXTT21=
EXTT22=
EXTT23=
EXTT24=
PLAYORDER=
